<svg width="25" height="25" viewBox="0 0 25 25" fill="#000000" xmlns="http://www.w3.org/2000/svg">
    <circle cx="12.5" cy="12.5" r="12.5" fill="#000"/>
    <path d="M13.4069 4C13.0101 4 12.6297 4.15804 12.3491 4.43934C12.0686 4.72064 11.911 5.10218 11.911 5.5C11.911 5.89782 12.0686 6.27936 12.3491 6.56066C12.6297 6.84196 13.0101 7 13.4069 7C13.8036 7 14.184 6.84196 14.4646 6.56066C14.7451 6.27936 14.9027 5.89782 14.9027 5.5C14.9027 5.10218 14.7451 4.72064 14.4646 4.43934C14.184 4.15804 13.8036 4 13.4069 4ZM13.0479 8.77C11.8612 8.87 8.62018 11.46 8.62018 11.46C8.42074 11.61 8.48057 11.6 8.64013 11.88C8.79969 12.15 8.77974 12.17 8.96921 12.04C9.16866 11.91 9.49774 11.7 10.0462 11.36C12.1603 10 10.3853 13.14 9.4778 18.43C9.1188 21.05 11.4722 19.7 12.0805 19.3C12.6789 18.91 14.2844 17.8 14.444 17.69C14.6634 17.54 14.5038 17.42 14.3343 17.17C14.2146 17 14.0949 17.12 14.0949 17.12C13.4467 17.55 12.26 18.45 12.1005 17.88C11.911 17.31 13.1276 13.4 13.7958 10.71C13.9055 10.07 14.2046 8.67 13.0479 8.77Z" fill="white"/>
</svg>
