<svg width="25" height="25" viewBox="0 0 25 25" fill="#000000" xmlns="http://www.w3.org/2000/svg">
    <circle cx="12.5" cy="12.5" r="12.5" fill="#000"/>
    <path d="M15.0064 14.0616C14.7873 13.8123 14.5463 13.5924 14.2834 13.4018C14.0204 13.2111 13.738 13.0474 13.4361 12.9106C13.1342 12.7737 12.8275 12.6735 12.5158 12.61C12.2042 12.5464 11.878 12.5122 11.5371 12.5073C11.1086 12.5073 10.6947 12.5635 10.2955 12.676C9.89617 12.7884 9.52367 12.9448 9.17796 13.1452C8.83224 13.3456 8.51817 13.5899 8.23576 13.8783C7.95334 14.1667 7.70988 14.4844 7.50537 14.8314C7.30086 15.1784 7.14261 15.5523 7.03062 15.9531C6.91863 16.3539 6.86263 16.7693 6.86263 17.1994H5.92773C5.92773 16.6129 6.01295 16.0484 6.18337 15.5059C6.35379 14.9633 6.59969 14.4624 6.92106 14.0029C7.24243 13.5435 7.62223 13.1354 8.06047 12.7786C8.4987 12.4218 8.99536 12.1408 9.55046 11.9355C9.00023 11.5738 8.57174 11.1193 8.26497 10.5718C7.95821 10.0244 7.8024 9.41838 7.79753 8.75367C7.79753 8.23558 7.89491 7.74927 8.08968 7.29472C8.28445 6.84018 8.54982 6.44184 8.8858 6.09971C9.22178 5.75758 9.61863 5.48876 10.0763 5.29326C10.534 5.09775 11.021 5 11.5371 5C12.0532 5 12.5377 5.09775 12.9906 5.29326C13.4434 5.48876 13.8403 5.75513 14.1811 6.09238C14.522 6.42962 14.7898 6.82796 14.9845 7.28739C15.1793 7.74682 15.2767 8.23558 15.2767 8.75367C15.2767 9.07625 15.2377 9.3915 15.1598 9.69941C15.0819 10.0073 14.9651 10.2981 14.8092 10.5718C14.6534 10.8456 14.4708 11.0973 14.2615 11.327C14.0521 11.5567 13.8062 11.7595 13.5238 11.9355C13.9328 12.0919 14.3175 12.2923 14.6778 12.5367C15.0381 12.781 15.3668 13.067 15.6638 13.3944L15.0064 14.0616ZM8.73242 8.75367C8.73242 9.14467 8.80546 9.5088 8.95154 9.84604C9.09762 10.1833 9.29725 10.4814 9.55046 10.7405C9.80366 10.9995 10.1007 11.2023 10.4415 11.349C10.7824 11.4956 11.1476 11.5689 11.5371 11.5689C11.9218 11.5689 12.2845 11.4956 12.6254 11.349C12.9662 11.2023 13.2633 11.002 13.5165 10.7478C13.7697 10.4936 13.9717 10.1955 14.1227 9.85337C14.2736 9.51124 14.3467 9.14467 14.3418 8.75367C14.3418 8.36755 14.2688 8.00342 14.1227 7.66129C13.9766 7.31916 13.777 7.02102 13.5238 6.76686C13.2706 6.51271 12.9711 6.30987 12.6254 6.15836C12.2797 6.00684 11.9169 5.93353 11.5371 5.93842C11.1476 5.93842 10.7848 6.01173 10.4488 6.15836C10.1129 6.30499 9.81583 6.50538 9.55776 6.75953C9.29969 7.01369 9.09762 7.31427 8.95154 7.66129C8.80546 8.00831 8.73242 8.37243 8.73242 8.75367ZM19.4253 11.5689C19.6298 11.5689 19.8197 11.6056 19.995 11.6789C20.1703 11.7522 20.3261 11.8524 20.4624 11.9795C20.5988 12.1065 20.701 12.2605 20.7692 12.4413C20.8374 12.6222 20.8763 12.8152 20.8861 13.0205C20.8861 13.2111 20.8495 13.3969 20.7765 13.5777C20.7035 13.7586 20.5988 13.9174 20.4624 14.0543L15.2256 19.3109L12.472 20L13.1586 17.2361L18.3954 11.9868C18.5367 11.8451 18.6949 11.74 18.8702 11.6716C19.0455 11.6031 19.2305 11.5689 19.4253 11.5689ZM19.7978 13.3944C19.9 13.2918 19.9512 13.1672 19.9512 13.0205C19.9512 12.869 19.9025 12.7468 19.8051 12.654C19.7077 12.5611 19.5811 12.5122 19.4253 12.5073C19.3571 12.5073 19.2914 12.5171 19.2281 12.5367C19.1648 12.5562 19.1088 12.5929 19.0601 12.6466L14.0058 17.7199L13.7575 18.7097L14.7435 18.4604L19.7978 13.3944Z" fill="white"/>
</svg>