<svg width="118" height="181" viewBox="0 0 118 181" fill="none" xmlns="http://www.w3.org/2000/svg">
<path d="M65.5642 91H1.63628C1.3859 90.9996 1.14586 90.8459 0.968816 90.5728C0.791771 90.2997 0.692181 89.9294 0.691895 89.5431V1.4569C0.692181 1.07064 0.791771 0.700324 0.968816 0.427198C1.14586 0.154073 1.3859 0.000441533 1.63628 0H65.5642C65.8146 0.000436735 66.0546 0.154072 66.2316 0.427198C66.4087 0.700325 66.5083 1.07064 66.5086 1.4569V89.5431C66.5083 89.9294 66.4087 90.2997 66.2316 90.5728C66.0546 90.8459 65.8146 90.9996 65.5642 91Z" fill="#E2AC54"/>
<path d="M60.5674 73H6.63346C6.3802 72.9995 6.1374 72.8159 5.95832 72.4896C5.77925 72.1633 5.67851 71.7209 5.67822 71.2594V10.7406C5.67851 10.2791 5.77925 9.83669 5.95832 9.51038C6.1374 9.18407 6.3802 9.00053 6.63346 9H60.5674C60.8207 9.00053 61.0635 9.18409 61.2426 9.51039C61.4216 9.8367 61.5224 10.2791 61.5227 10.7406V71.2594C61.5224 71.7209 61.4216 72.1633 61.2426 72.4896C61.0635 72.8159 60.8207 72.9995 60.5674 73Z" fill="white"/>
<path d="M42.0942 36.9375H25.1058C24.8414 36.9375 24.625 36.7371 24.625 36.4922V35.1562C24.625 34.1729 25.4864 33.375 26.5482 33.375H28.4714V31.4453C28.4714 31.2004 28.6878 31 28.9522 31H30.5549C30.8194 31 31.0357 31.2004 31.0357 31.4453V33.375H36.1643V31.4453C36.1643 31.2004 36.3806 31 36.6451 31H38.2478C38.5122 31 38.7286 31.2004 38.7286 31.4453V33.375H40.6518C41.7136 33.375 42.575 34.1729 42.575 35.1562V36.4922C42.575 36.7371 42.3586 36.9375 42.0942 36.9375ZM25.1058 38.125H42.0942C42.3586 38.125 42.575 38.3254 42.575 38.5703V48.2188C42.575 49.2021 41.7136 50 40.6518 50H26.5482C25.4864 50 24.625 49.2021 24.625 48.2188V38.5703C24.625 38.3254 24.8414 38.125 25.1058 38.125ZM35.415 44.0625L37.3423 42.2775C37.5306 42.1031 37.5306 41.8211 37.3423 41.6467L36.2084 40.5965C36.02 40.4221 35.7155 40.4221 35.5272 40.5965L33.6 42.3814L31.6728 40.5965C31.4845 40.4221 31.18 40.4221 30.9916 40.5965L29.8577 41.6467C29.6694 41.8211 29.6694 42.1031 29.8577 42.2775L31.785 44.0625L29.8577 45.8475C29.6694 46.0219 29.6694 46.3039 29.8577 46.4783L30.9916 47.5285C31.18 47.7029 31.4845 47.7029 31.6728 47.5285L33.6 45.7436L35.5272 47.5285C35.7155 47.7029 36.02 47.7029 36.2084 47.5285L37.3423 46.4783C37.5306 46.3039 37.5306 46.0219 37.3423 45.8475L35.415 44.0625Z" fill="#E2AC54"/>
<path d="M111.827 177.75H107.538L105.498 163.938L111.828 163.938L111.827 177.75Z" fill="#FBBF8B"/>
<path d="M112.619 181L99.9585 181V180.846C99.9586 179.594 100.478 178.393 101.402 177.508C102.326 176.622 103.579 176.125 104.886 176.125L112.619 176.125L112.619 181Z" fill="#2F2E41"/>
<path d="M76.2194 177.75H72.4665L70.6812 163.938L76.2201 163.938L76.2194 177.75Z" fill="#FBBF8B"/>
<path d="M77.8027 181L65.1426 181V180.846C65.1427 179.594 65.6619 178.393 66.586 177.508C67.5101 176.622 68.7634 176.125 70.0703 176.125L77.803 176.125L77.8027 181Z" fill="#2F2E41"/>
<path d="M81.0932 67.25L78.5942 82.3905L102.332 82.6875L99.2088 68.1407L81.0932 67.25Z" fill="#E2AC54"/>
<path d="M79.164 78.625L71.6166 97.2626L70.6812 174.5H77.0731L92.3515 112.444L106.383 172.88H112.619L108.253 104.926C108.253 104.926 109.541 91.2863 102.953 83.238L101.349 78.9415L79.164 78.625Z" fill="#FFE2AC"/>
<path d="M111.415 93.0884C110.757 92.9211 110.147 92.6211 109.627 92.2096C109.106 91.7981 108.689 91.2852 108.404 90.7069C108.119 90.1285 107.974 89.499 107.978 88.8624C107.982 88.2259 108.135 87.5979 108.427 87.0227L98.376 56.4306L105.769 55.0625L114.962 85.0492C115.964 85.5712 116.727 86.4184 117.105 87.4303C117.483 88.4422 117.45 89.5484 117.013 90.5393C116.576 91.5303 115.765 92.3371 114.733 92.8069C113.701 93.2767 112.521 93.3769 111.415 93.0884Z" fill="#FBBF8B" fill-opacity="0.98"/>
<path d="M97.9514 75.3745L81.8421 75.0821C81.3816 75.0729 80.9371 74.922 80.5766 74.6525C80.216 74.383 79.9593 74.0099 79.8458 73.5901C78.9822 70.3746 77.0822 61.9946 78.09 53.6481C78.2889 52.0312 78.8307 50.4683 79.6831 49.0517C80.5356 47.6351 81.6816 46.3938 83.0532 45.401C84.4248 44.4083 85.9942 43.6843 87.6685 43.272C89.3429 42.8597 91.0882 42.7674 92.8011 43.0005C94.6081 43.2438 96.34 43.8436 97.8831 44.7606C99.4262 45.6776 100.746 46.8911 101.755 48.3215C102.764 49.7518 103.441 51.3667 103.74 53.0601C104.039 54.7536 103.954 56.4874 103.49 58.1477C101.462 65.3895 100.317 70.5704 100.086 73.5468C100.052 73.9772 99.8686 74.3852 99.5646 74.7085C99.2606 75.0318 98.8525 75.2526 98.4025 75.3373C98.2687 75.3623 98.1326 75.3749 97.9962 75.375C97.9812 75.375 97.9663 75.3748 97.9514 75.3745Z" fill="#E2AC54"/>
<path d="M53.172 48.6277C53.2687 48.8331 53.3481 49.0454 53.4095 49.2626L73.551 55.7467L77.4429 52.5256L83.3418 57.4548L77.0368 63.7915C76.5275 64.3034 75.8566 64.6449 75.1249 64.7649C74.3932 64.8848 73.6402 64.7767 72.9789 64.4567L51.4263 54.0269C50.6469 54.4798 49.7404 54.6972 48.8274 54.6502C47.9144 54.6031 47.0381 54.2938 46.3152 53.7635C45.5922 53.2331 45.0569 52.5068 44.7803 51.6811C44.5037 50.8555 44.499 49.9696 44.7668 49.1413C45.0346 48.3131 45.5622 47.5817 46.2795 47.0445C46.9968 46.5072 47.8697 46.1896 48.7822 46.1338C49.6946 46.0781 50.6034 46.2868 51.3875 46.7323C52.1717 47.1778 52.7941 47.8389 53.172 48.6277Z" fill="#FBBF8B"/>
<path d="M73.8467 54.4238C73.8483 54.1599 73.9095 53.8993 74.0262 53.66C74.143 53.4207 74.3125 53.2082 74.5231 53.037L81.8796 47.0587C82.8107 46.0413 84.1266 45.4178 85.5388 45.3247C86.951 45.2315 88.3443 45.6765 89.4132 46.5619C90.4821 47.4474 91.1394 48.7011 91.2409 50.0481C91.3425 51.3952 90.88 52.7257 89.9548 53.748L84.7161 61.5308C84.5666 61.7529 84.3687 61.9416 84.1358 62.0842C83.9029 62.2267 83.6406 62.3197 83.3666 62.3568C83.0927 62.3939 82.8136 62.3742 82.5483 62.2991C82.2831 62.224 82.0379 62.0952 81.8295 61.9216L74.5055 55.8186C74.297 55.645 74.1302 55.4305 74.0165 55.1898C73.9028 54.9491 73.8449 54.6878 73.8467 54.4238Z" fill="#E2AC54"/>
<path d="M97.0557 65.8546C96.804 65.7339 96.5838 65.5652 96.4102 65.3598C96.2366 65.1545 96.1136 64.9175 96.0496 64.6649L93.8143 55.8432C93.2818 54.6088 93.3081 53.2323 93.8874 52.0155C94.4666 50.7987 95.5516 49.841 96.9043 49.3523C98.257 48.8637 99.7671 48.884 101.103 49.4089C102.44 49.9337 103.493 50.9203 104.033 52.1522L108.996 60.0285C109.137 60.2533 109.224 60.5032 109.25 60.7614C109.276 61.0195 109.241 61.2798 109.147 61.5244C109.053 61.769 108.902 61.9922 108.705 62.1788C108.507 62.3655 108.268 62.5112 108.003 62.6059L98.7012 65.9374C98.4365 66.0323 98.1525 66.0741 97.8685 66.0598C97.5845 66.0455 97.3073 65.9755 97.0557 65.8546Z" fill="#E2AC54"/>
<path d="M97.6183 39.8308C102.439 37.3602 104.21 31.6936 101.575 27.174C98.9401 22.6545 92.8962 20.9935 88.0758 23.4641C83.2554 25.9347 81.4838 31.6013 84.1189 36.1209C86.754 40.6404 92.7979 42.3014 97.6183 39.8308Z" fill="#FBBF8B"/>
<path d="M98.5954 33.8796C98.5954 33.8796 94.3354 28.0827 90.0711 28.7225C85.8068 29.3623 83.5838 29.94 83.5838 29.94C83.5838 29.94 81.8473 25.3181 87.6774 23.1006C87.6774 23.1006 79.4268 17.3556 88.2201 13.6686C97.0133 9.9817 102.485 13.5549 102.485 13.5549C102.485 13.5549 109.763 18.6881 101.694 23.4387C101.694 23.4387 108.678 30.055 101.624 36.375C101.624 36.375 102.869 31.5627 101.175 32.5492C99.4812 33.5358 98.5954 33.8796 98.5954 33.8796Z" fill="#2F2E41"/>
<circle cx="34.5" cy="81.5" r="3.5" fill="white"/>
</svg>
