<svg width="117" height="181" viewBox="0 0 117 181" fill="none" xmlns="http://www.w3.org/2000/svg">
<path d="M65.053 91H0.947019C0.695942 90.9996 0.455231 90.8459 0.277693 90.5728C0.100154 90.2997 0.000287528 89.9294 0 89.5431V1.4569C0.000287008 1.07064 0.100154 0.700324 0.277693 0.427198C0.455231 0.154073 0.695942 0.000441533 0.947019 0H65.053C65.3041 0.000436735 65.5448 0.154072 65.7223 0.427198C65.8998 0.700325 65.9997 1.07064 66 1.4569V89.5431C65.9997 89.9294 65.8998 90.2997 65.7223 90.5728C65.5448 90.8459 65.3041 90.9996 65.053 91Z" fill="#4D1602" fill-opacity="0.79"/>
<path d="M60.0421 73H5.95789C5.70393 72.9995 5.46046 72.8159 5.28088 72.4896C5.1013 72.1633 5.00029 71.7209 5 71.2594V10.7406C5.00029 10.2791 5.1013 9.83669 5.28088 9.51038C5.46046 9.18407 5.70393 9.00053 5.95789 9H60.0421C60.2961 9.00053 60.5395 9.18409 60.7191 9.51039C60.8987 9.8367 60.9997 10.2791 61 10.7406V71.2594C60.9997 71.7209 60.8987 72.1633 60.7191 72.4896C60.5395 72.8159 60.2961 72.9995 60.0421 73Z" fill="white"/>
<path d="M111.445 177.75H107.144L105.098 163.938L111.445 163.938L111.445 177.75Z" fill="#FBBF8B"/>
<path d="M112.239 181L99.5435 181V180.846C99.5436 179.594 100.064 178.393 100.991 177.508C101.918 176.622 103.174 176.125 104.485 176.125L112.239 176.125L112.239 181Z" fill="#2F2E41"/>
<path d="M75.7382 177.75H71.9749L70.1846 163.938L75.7389 163.938L75.7382 177.75Z" fill="#FBBF8B"/>
<path d="M77.3258 181L64.6304 181V180.846C64.6305 179.594 65.1511 178.393 66.0778 177.508C67.0044 176.622 68.2613 176.125 69.5718 176.125L77.326 176.125L77.3258 181Z" fill="#2F2E41"/>
<path d="M80.6255 67.25L78.1196 82.3905L101.924 82.6875L98.7916 68.1407L80.6255 67.25Z" fill="#E0E0E0"/>
<path d="M78.691 78.625L71.1226 97.2626L70.1846 174.5H76.5943L91.9153 112.444L105.985 172.88H112.239L107.862 104.926C107.862 104.926 109.152 91.2863 102.546 83.238L100.938 78.9415L78.691 78.625Z" fill="#9A562B"/>
<path d="M111.032 93.0884C110.372 92.9211 109.76 92.6211 109.239 92.2096C108.717 91.7981 108.298 91.2852 108.013 90.7069C107.727 90.1285 107.581 89.499 107.585 88.8624C107.589 88.2259 107.743 87.5979 108.036 87.0227L97.9565 56.4306L105.37 55.0625L114.588 85.0492C115.594 85.5712 116.358 86.4184 116.738 87.4303C117.117 88.4422 117.084 89.5484 116.646 90.5393C116.207 91.5303 115.394 92.3371 114.359 92.8069C113.325 93.2767 112.141 93.3769 111.032 93.0884Z" fill="#FBBF8B" fill-opacity="0.98"/>
<path d="M97.5309 75.3745L81.3768 75.0821C80.915 75.0729 80.4693 74.922 80.1077 74.6525C79.7462 74.383 79.4888 74.0099 79.375 73.5901C78.509 70.3746 76.6037 61.9946 77.6143 53.6481C77.8137 52.0312 78.357 50.4683 79.2118 49.0517C80.0667 47.6351 81.2158 46.3938 82.5912 45.401C83.9667 44.4083 85.5404 43.6843 87.2194 43.272C88.8984 42.8597 90.6486 42.7674 92.3663 43.0005C94.1783 43.2438 95.915 43.8436 97.4625 44.7606C99.0099 45.6776 100.333 46.8911 101.345 48.3215C102.357 49.7518 103.036 51.3667 103.336 53.0601C103.635 54.7536 103.55 56.4874 103.085 58.1477C101.052 65.3895 99.9032 70.5704 99.6713 73.5468C99.637 73.9772 99.4535 74.3852 99.1486 74.7085C98.8438 75.0318 98.4346 75.2526 97.9833 75.3373C97.8491 75.3623 97.7127 75.3749 97.5758 75.375C97.5609 75.375 97.5459 75.3748 97.5309 75.3745Z" fill="#E0E0E0"/>
<path d="M52.6267 48.6277C52.7236 48.8331 52.8032 49.0454 52.8648 49.2626L73.0624 55.7467L76.9651 52.5256L82.8804 57.4548L76.5579 63.7915C76.0472 64.3034 75.3744 64.6449 74.6407 64.7649C73.9069 64.8848 73.1518 64.7767 72.4887 64.4567L50.876 54.0269C50.0945 54.4798 49.1855 54.6972 48.2699 54.6502C47.3544 54.6031 46.4757 54.2938 45.7507 53.7635C45.0258 53.2331 44.4889 52.5068 44.2115 51.6811C43.9342 50.8555 43.9295 49.9696 44.198 49.1413C44.4666 48.3131 44.9957 47.5817 45.7149 47.0445C46.4342 46.5072 47.3096 46.1896 48.2246 46.1338C49.1396 46.0781 50.0508 46.2868 50.8372 46.7323C51.6236 47.1778 52.2477 47.8389 52.6267 48.6277Z" fill="#FBBF8B"/>
<path d="M73.3589 54.4238C73.3605 54.1599 73.4219 53.8993 73.5389 53.66C73.656 53.4207 73.826 53.2082 74.0372 53.037L81.4142 47.0587C82.3478 46.0413 83.6674 45.4178 85.0836 45.3247C86.4997 45.2315 87.8969 45.6765 88.9688 46.5619C90.0407 47.4474 90.6998 48.7011 90.8016 50.0481C90.9034 51.3952 90.4396 52.7257 89.5119 53.748L84.2586 61.5308C84.1087 61.7529 83.9102 61.9416 83.6767 62.0842C83.4431 62.2267 83.18 62.3197 82.9053 62.3568C82.6306 62.3939 82.3508 62.3742 82.0848 62.2991C81.8188 62.224 81.5729 62.0952 81.364 61.9216L74.0195 55.8186C73.8104 55.645 73.6432 55.4305 73.5292 55.1898C73.4152 54.9491 73.3571 54.6878 73.3589 54.4238Z" fill="#E0E0E0"/>
<path d="M96.6327 65.8546C96.3803 65.7339 96.1595 65.5652 95.9854 65.3598C95.8113 65.1545 95.688 64.9175 95.6238 64.6649L93.3822 55.8432C92.8483 54.6088 92.8747 53.2323 93.4555 52.0155C94.0364 50.7987 95.1243 49.841 96.4808 49.3523C97.8373 48.8637 99.3516 48.884 100.692 49.4089C102.032 49.9337 103.088 50.9203 103.629 52.1522L108.606 60.0285C108.748 60.2533 108.835 60.5032 108.861 60.7614C108.887 61.0195 108.852 61.2798 108.758 61.5244C108.663 61.769 108.512 61.9922 108.314 62.1788C108.116 62.3655 107.876 62.5112 107.611 62.6059L98.2827 65.9374C98.0173 66.0323 97.7325 66.0741 97.4477 66.0598C97.163 66.0455 96.8849 65.9755 96.6327 65.8546Z" fill="#E0E0E0"/>
<path d="M97.197 39.8308C102.031 37.3602 103.807 31.6936 101.165 27.174C98.5225 22.6545 92.4618 20.9935 87.6279 23.4641C82.7941 25.9347 81.0176 31.6013 83.66 36.1209C86.3024 40.6404 92.3632 42.3014 97.197 39.8308Z" fill="#FBBF8B"/>
<path d="M98.1765 33.8796C98.1765 33.8796 93.9046 28.0827 89.6284 28.7225C85.3523 29.3623 83.1231 29.94 83.1231 29.94C83.1231 29.94 81.3817 25.3181 87.228 23.1006C87.228 23.1006 78.9545 17.3556 87.7722 13.6686C96.59 9.9817 102.077 13.5549 102.077 13.5549C102.077 13.5549 109.375 18.6881 101.284 23.4387C101.284 23.4387 108.287 30.055 101.213 36.375C101.213 36.375 102.462 31.5627 100.763 32.5492C99.0647 33.5358 98.1765 33.8796 98.1765 33.8796Z" fill="#2F2E41"/>
<circle cx="33.5" cy="81.5" r="3.5" fill="#D9D9D9"/>
<path d="M41.5179 36.9375H24.4821C24.217 36.9375 24 36.7371 24 36.4922V35.1562C24 34.1729 24.8638 33.375 25.9286 33.375H27.8571V31.4453C27.8571 31.2004 28.0741 31 28.3393 31H29.9464C30.2116 31 30.4286 31.2004 30.4286 31.4453V33.375H35.5714V31.4453C35.5714 31.2004 35.7884 31 36.0536 31H37.6607C37.9259 31 38.1429 31.2004 38.1429 31.4453V33.375H40.0714C41.1362 33.375 42 34.1729 42 35.1562V36.4922C42 36.7371 41.783 36.9375 41.5179 36.9375ZM24.4821 38.125H41.5179C41.783 38.125 42 38.3254 42 38.5703V48.2188C42 49.2021 41.1362 50 40.0714 50H25.9286C24.8638 50 24 49.2021 24 48.2188V38.5703C24 38.3254 24.217 38.125 24.4821 38.125ZM34.8201 44.0625L36.7527 42.2775C36.9415 42.1031 36.9415 41.8211 36.7527 41.6467L35.6156 40.5965C35.4268 40.4221 35.1214 40.4221 34.9326 40.5965L33 42.3814L31.0674 40.5965C30.8786 40.4221 30.5732 40.4221 30.3844 40.5965L29.2473 41.6467C29.0585 41.8211 29.0585 42.1031 29.2473 42.2775L31.1799 44.0625L29.2473 45.8475C29.0585 46.0219 29.0585 46.3039 29.2473 46.4783L30.3844 47.5285C30.5732 47.7029 30.8786 47.7029 31.0674 47.5285L33 45.7436L34.9326 47.5285C35.1214 47.7029 35.4268 47.7029 35.6156 47.5285L36.7527 46.4783C36.9415 46.3039 36.9415 46.0219 36.7527 45.8475L34.8201 44.0625Z" fill="#906346"/>
</svg>
