<svg width="135" height="213" viewBox="0 0 135 213" fill="none" xmlns="http://www.w3.org/2000/svg">
<path d="M75.0611 107.293H1.09271C0.80301 107.293 0.525267 107.113 0.320415 106.794C0.115563 106.475 0.000331763 106.042 0 105.59V2.63544C0.000331163 2.18398 0.115563 1.75115 0.320415 1.43193C0.525267 1.1127 0.80301 0.933133 1.09271 0.932617H75.0611C75.3508 0.933128 75.6286 1.1127 75.8334 1.43193C76.0383 1.75116 76.1535 2.18398 76.1538 2.63544V105.59C76.1535 106.042 76.0383 106.475 75.8334 106.794C75.6286 107.113 75.3508 107.293 75.0611 107.293Z" fill="#4D1602" fill-opacity="0.79"/>
<path d="M69.2792 86.2548H6.87431C6.58127 86.2541 6.30034 86.0396 6.09314 85.6582C5.88593 85.2768 5.76938 84.7597 5.76904 84.2204V13.4861C5.76938 12.9467 5.88593 12.4296 6.09314 12.0482C6.30034 11.6668 6.58127 11.4523 6.87431 11.4517H69.2792C69.5722 11.4523 69.8531 11.6668 70.0603 12.0482C70.2675 12.4296 70.3841 12.9467 70.3844 13.4861V84.2204C70.3841 84.7597 70.2675 85.2768 70.0603 85.6582C69.8531 86.0396 69.5722 86.2541 69.2792 86.2548Z" fill="white"/>
<path d="M128.59 208.687H123.628L121.267 192.542L128.591 192.543L128.59 208.687Z" fill="#FBBF8B"/>
<path d="M129.506 212.485L114.858 212.484V212.305C114.858 210.842 115.459 209.438 116.528 208.403C117.597 207.369 119.047 206.787 120.56 206.787L129.507 206.787L129.506 212.485Z" fill="#2F2E41"/>
<path d="M87.3905 208.687H83.0482L80.9824 192.542L87.3913 192.543L87.3905 208.687Z" fill="#FBBF8B"/>
<path d="M89.2223 212.485L74.5737 212.484V212.305C74.5738 210.842 75.1746 209.438 76.2438 208.403C77.3131 207.369 78.7632 206.787 80.2754 206.787L89.2226 206.787L89.2223 212.485Z" fill="#2F2E41"/>
<path d="M93.0296 79.5342L90.1382 97.2303L117.605 97.5775L113.991 80.5753L93.0296 79.5342Z" fill="#E0E0E0"/>
<path d="M90.7976 92.8291L82.0647 114.613L80.9824 204.888H88.3783L106.056 132.357L122.291 202.994H129.507L124.456 123.569C124.456 123.569 125.945 107.628 118.323 98.2208L116.467 93.1991L90.7976 92.8291Z" fill="#9A562B"/>
<path d="M128.114 109.734C127.353 109.539 126.646 109.188 126.045 108.707C125.443 108.226 124.96 107.627 124.63 106.951C124.301 106.275 124.132 105.539 124.137 104.795C124.141 104.051 124.319 103.317 124.657 102.645L113.027 66.8886L121.581 65.2896L132.217 100.338C133.377 100.948 134.26 101.938 134.697 103.121C135.135 104.304 135.097 105.597 134.591 106.755C134.086 107.913 133.147 108.856 131.953 109.405C130.759 109.954 129.393 110.071 128.114 109.734Z" fill="#FBBF8B" fill-opacity="0.98"/>
<path d="M112.536 89.0298L93.8964 88.688C93.3637 88.6773 92.8493 88.5009 92.4321 88.1859C92.015 87.871 91.718 87.4348 91.5866 86.9442C90.5874 83.1859 88.389 73.3914 89.5551 63.636C89.7852 61.7462 90.412 59.9194 91.3984 58.2637C92.3848 56.6081 93.7107 55.1572 95.2977 53.9969C96.8848 52.8365 98.7006 51.9904 100.638 51.5085C102.575 51.0265 104.595 50.9186 106.577 51.1911C108.667 51.4755 110.671 52.1765 112.457 53.2483C114.242 54.3201 115.769 55.7385 116.937 57.4102C118.105 59.082 118.887 60.9695 119.233 62.9488C119.579 64.9281 119.481 66.9545 118.945 68.8952C116.598 77.3594 115.273 83.4148 115.006 86.8936C114.966 87.3966 114.754 87.8735 114.402 88.2513C114.051 88.6292 113.579 88.8873 113.058 88.9863C112.903 89.0155 112.746 89.0303 112.588 89.0304C112.57 89.0304 112.553 89.0302 112.536 89.0298Z" fill="#E0E0E0"/>
<path d="M60.7234 57.7684C60.8352 58.0085 60.9271 58.2566 60.9982 58.5105L84.303 66.0891L88.8062 62.3243L95.6316 68.0855L88.3364 75.4918C87.747 76.0901 86.9708 76.4893 86.1242 76.6295C85.2775 76.7697 84.4062 76.6433 83.6411 76.2693L58.7034 64.079C57.8016 64.6084 56.7528 64.8625 55.6964 64.8075C54.6399 64.7525 53.6261 64.391 52.7896 63.7711C51.9531 63.1512 51.3336 62.3023 51.0136 61.3372C50.6936 60.3722 50.6881 59.3368 50.998 58.3687C51.3079 57.4007 51.9184 56.5458 52.7483 55.9179C53.5782 55.29 54.5882 54.9188 55.644 54.8536C56.6998 54.7884 57.7513 55.0324 58.6586 55.5531C59.5659 56.0738 60.2861 56.8465 60.7234 57.7684Z" fill="#FBBF8B"/>
<path d="M84.6451 64.5429C84.6469 64.2343 84.7177 63.9298 84.8528 63.6501C84.9878 63.3704 85.1839 63.122 85.4277 62.922L93.9396 55.9345C95.0169 54.7454 96.5395 54.0166 98.1735 53.9078C99.8075 53.7989 101.42 54.319 102.656 55.3539C103.893 56.3888 104.654 57.8541 104.771 59.4286C104.889 61.003 104.354 62.5581 103.283 63.7529L97.2216 72.8495C97.0486 73.109 96.8196 73.3297 96.5501 73.4963C96.2807 73.6629 95.9771 73.7715 95.6602 73.8149C95.3432 73.8582 95.0203 73.8352 94.7134 73.7475C94.4064 73.6597 94.1228 73.5092 93.8816 73.3062L85.4073 66.173C85.166 65.9701 84.9731 65.7195 84.8415 65.4381C84.71 65.1568 84.6429 64.8514 84.6451 64.5429Z" fill="#E0E0E0"/>
<path d="M111.5 77.9032C111.208 77.7622 110.954 77.5649 110.753 77.325C110.552 77.085 110.41 76.808 110.336 76.5127L107.749 66.202C107.133 64.7592 107.163 63.1503 107.834 61.7281C108.504 60.3059 109.759 59.1865 111.324 58.6154C112.89 58.0443 114.637 58.0681 116.183 58.6815C117.729 59.295 118.948 60.448 119.572 61.8878L125.315 71.0937C125.479 71.3564 125.579 71.6486 125.609 71.9503C125.64 72.252 125.599 72.5562 125.49 72.8421C125.381 73.1279 125.206 73.3889 124.978 73.607C124.75 73.8252 124.473 73.9954 124.167 74.1062L113.404 78C113.097 78.111 112.769 78.1597 112.44 78.143C112.112 78.1263 111.791 78.0445 111.5 77.9032Z" fill="#E0E0E0"/>
<path d="M112.15 47.4858C117.728 44.5982 119.778 37.975 116.729 32.6926C113.68 27.4102 106.687 25.4688 101.109 28.3564C95.5317 31.2441 93.4819 37.8672 96.5309 43.1496C99.5798 48.4321 106.573 50.3734 112.15 47.4858Z" fill="#FBBF8B"/>
<path d="M113.281 40.5309C113.281 40.5309 108.352 33.7554 103.418 34.5032C98.4835 35.2511 95.9114 35.9263 95.9114 35.9263C95.9114 35.9263 93.9021 30.5241 100.648 27.9324C100.648 27.9324 91.1015 21.2176 101.276 16.9083C111.45 12.599 117.781 16.7754 117.781 16.7754C117.781 16.7754 126.202 22.7751 116.866 28.3276C116.866 28.3276 124.947 36.0606 116.785 43.4475C116.785 43.4475 118.226 37.8228 116.266 38.9759C114.306 40.129 113.281 40.5309 113.281 40.5309Z" fill="#2F2E41"/>
<g clip-path="url(#clip0_817_21488)">
<path d="M33.019 41.8647C34.1601 41.8647 35.2755 41.5391 36.2242 40.929C37.173 40.3189 37.9124 39.4517 38.3491 38.4371C38.7857 37.4225 38.9 36.3061 38.6774 35.229C38.4548 34.1519 37.9053 33.1626 37.0985 32.3861C36.2916 31.6095 35.2636 31.0807 34.1445 30.8665C33.0254 30.6522 31.8654 30.7622 30.8112 31.1824C29.757 31.6027 28.856 32.3144 28.2221 33.2275C27.5881 34.1406 27.2498 35.2141 27.2498 36.3123C27.2498 37.7849 27.8576 39.1972 28.9395 40.2385C30.0215 41.2797 31.4889 41.8647 33.019 41.8647ZM37.3459 44.641C37.3492 44.1773 37.4748 43.7221 37.711 43.3179C37.4947 43.2962 37.2828 43.2529 37.0575 43.2529H36.3048C35.2745 43.7101 34.1535 43.9469 33.019 43.9469C31.8845 43.9469 30.7635 43.7101 29.7332 43.2529H28.9805C27.3741 43.2532 25.8335 43.8676 24.6975 44.9608C23.5615 46.0541 22.9232 47.5368 22.9229 49.083V50.8875C22.9229 51.4398 23.1508 51.9694 23.5565 52.3599C23.9622 52.7503 24.5125 52.9697 25.0863 52.9697H37.7471C37.4878 52.5494 37.3494 52.0703 37.3459 51.5816V44.641ZM50.3267 43.2529H48.8844V39.7826C48.8844 38.8622 48.5045 37.9795 47.8283 37.3287C47.1521 36.6779 46.2349 36.3123 45.2786 36.3123C44.3223 36.3123 43.4052 36.6779 42.729 37.3287C42.0527 37.9795 41.6729 38.8622 41.6729 39.7826V43.2529H40.2305C39.848 43.2529 39.4812 43.3991 39.2107 43.6594C38.9402 43.9198 38.7882 44.2728 38.7882 44.641V51.5816C38.7882 51.9497 38.9402 52.3028 39.2107 52.5631C39.4812 52.8235 39.848 52.9697 40.2305 52.9697H50.3267C50.7092 52.9697 51.0761 52.8235 51.3466 52.5631C51.6171 52.3028 51.769 51.9497 51.769 51.5816V44.641C51.769 44.2728 51.6171 43.9198 51.3466 43.6594C51.0761 43.3991 50.7092 43.2529 50.3267 43.2529ZM45.2786 49.4994C44.9934 49.4994 44.7145 49.418 44.4773 49.2655C44.2401 49.1129 44.0553 48.8961 43.9461 48.6425C43.8369 48.3889 43.8084 48.1097 43.864 47.8405C43.9197 47.5712 44.057 47.3239 44.2588 47.1297C44.4605 46.9356 44.7175 46.8034 44.9972 46.7498C45.277 46.6963 45.567 46.7238 45.8306 46.8288C46.0941 46.9339 46.3194 47.1118 46.4779 47.3401C46.6363 47.5684 46.7209 47.8367 46.7209 48.1113C46.7209 48.4794 46.569 48.8325 46.2985 49.0928C46.028 49.3532 45.6611 49.4994 45.2786 49.4994ZM46.7209 43.2529H43.8363V39.7826C43.8363 39.4144 43.9883 39.0613 44.2588 38.801C44.5292 38.5407 44.8961 38.3944 45.2786 38.3944C45.6611 38.3944 46.028 38.5407 46.2985 38.801C46.569 39.0613 46.7209 39.4144 46.7209 39.7826V43.2529Z" fill="#A87351"/>
</g>
<ellipse cx="39.6537" cy="96.6162" rx="4.03846" ry="3.88674" fill="#D9D9D9"/>
<defs>
<clipPath id="clip0_817_21488">
<rect width="28.8462" height="27.7624" fill="white" transform="translate(22.9229 27.9834)"/>
</clipPath>
</defs>
</svg>
