<svg width="138" height="212" viewBox="0 0 138 212" fill="none" xmlns="http://www.w3.org/2000/svg">
<path d="M76.3029 106.359H1.11079C0.816294 106.359 0.533956 106.179 0.325715 105.86C0.117474 105.541 0.000337251 105.108 0 104.657V1.7028C0.000336641 1.25135 0.117474 0.818528 0.325715 0.499303C0.533956 0.180078 0.816294 0.000516057 1.11079 0H76.3029C76.5974 0.000510449 76.8797 0.180077 77.088 0.499303C77.2962 0.818529 77.4133 1.25135 77.4137 1.7028V104.657C77.4133 105.108 77.2962 105.541 77.088 105.86C76.8797 106.179 76.5974 106.359 76.3029 106.359Z" fill="#E2AC54"/>
<path d="M70.4255 85.3213H6.98829C6.69041 85.3206 6.40483 85.1061 6.1942 84.7247C5.98357 84.3434 5.86509 83.8263 5.86475 83.2869V12.5534C5.86509 12.0141 5.98357 11.497 6.1942 11.1156C6.40483 10.7342 6.69041 10.5197 6.98829 10.519H70.4255C70.7234 10.5197 71.009 10.7342 71.2196 11.1156C71.4303 11.497 71.5487 12.0141 71.5491 12.5534V83.2869C71.5487 83.8263 71.4303 84.3433 71.2196 84.7247C71.009 85.1061 70.7234 85.3206 70.4255 85.3213Z" fill="white"/>
<g clip-path="url(#clip0_1377_8472)">
<path d="M32.7182 37.0108C33.8593 37.0108 34.9747 36.7147 35.9234 36.1601C36.8722 35.6055 37.6116 34.8172 38.0483 33.8949C38.485 32.9726 38.5992 31.9577 38.3766 30.9786C38.154 29.9994 37.6045 29.1001 36.7977 28.3942C35.9908 27.6882 34.9629 27.2075 33.8437 27.0128C32.7246 26.818 31.5646 26.918 30.5104 27.3C29.4562 27.682 28.5552 28.329 27.9213 29.159C27.2874 29.9891 26.949 30.965 26.949 31.9633C26.949 33.302 27.5568 34.5858 28.6388 35.5324C29.7207 36.479 31.1881 37.0108 32.7182 37.0108ZM37.0451 39.5345C37.0484 39.113 37.174 38.6992 37.4102 38.3318C37.1939 38.3121 36.982 38.2726 36.7567 38.2726H36.004C34.9737 38.6883 33.8527 38.9036 32.7182 38.9036C31.5837 38.9036 30.4627 38.6883 29.4325 38.2726H28.6798C27.0733 38.273 25.5327 38.8314 24.3967 39.8253C23.2608 40.8191 22.6224 42.167 22.6221 43.5725V45.213C22.6221 45.715 22.85 46.1964 23.2557 46.5514C23.6615 46.9063 24.2117 47.1058 24.7855 47.1058H37.4463C37.1871 46.7237 37.0486 46.2882 37.0451 45.8439V39.5345ZM50.0259 38.2726H48.5836V35.118C48.5836 34.2813 48.2037 33.4789 47.5275 32.8873C46.8513 32.2956 45.9341 31.9633 44.9778 31.9633C44.0215 31.9633 43.1044 32.2956 42.4282 32.8873C41.752 33.4789 41.3721 34.2813 41.3721 35.118V38.2726H39.9298C39.5472 38.2726 39.1804 38.4056 38.9099 38.6422C38.6394 38.8789 38.4875 39.1999 38.4875 39.5345V45.8439C38.4875 46.1786 38.6394 46.4995 38.9099 46.7362C39.1804 46.9728 39.5472 47.1058 39.9298 47.1058H50.0259C50.4084 47.1058 50.7753 46.9728 51.0458 46.7362C51.3163 46.4995 51.4682 46.1786 51.4682 45.8439V39.5345C51.4682 39.1999 51.3163 38.8789 51.0458 38.6422C50.7753 38.4056 50.4084 38.2726 50.0259 38.2726ZM44.9778 43.9511C44.6926 43.9511 44.4137 43.8771 44.1765 43.7384C43.9393 43.5998 43.7545 43.4027 43.6453 43.1721C43.5362 42.9415 43.5076 42.6878 43.5632 42.443C43.6189 42.1982 43.7563 41.9734 43.958 41.7969C44.1597 41.6205 44.4167 41.5003 44.6965 41.4516C44.9762 41.4029 45.2662 41.4279 45.5298 41.5234C45.7933 41.6189 46.0186 41.7806 46.1771 41.9881C46.3356 42.1957 46.4201 42.4396 46.4201 42.6892C46.4201 43.0239 46.2682 43.3448 45.9977 43.5815C45.7272 43.8181 45.3604 43.9511 44.9778 43.9511ZM46.4201 38.2726H43.5355V35.118C43.5355 34.7833 43.6875 34.4623 43.958 34.2257C44.2285 33.989 44.5953 33.8561 44.9778 33.8561C45.3604 33.8561 45.7272 33.989 45.9977 34.2257C46.2682 34.4623 46.4201 34.7833 46.4201 35.118V38.2726Z" fill="#E2AC54"/>
</g>
<path d="M130.717 207.752H125.673L123.272 191.608L130.718 191.608L130.717 207.752Z" fill="#FBBF8B"/>
<path d="M131.649 211.55L116.758 211.549V211.37C116.758 209.907 117.369 208.503 118.456 207.468C119.543 206.434 121.017 205.852 122.554 205.852L131.649 205.852L131.649 211.55Z" fill="#2F2E41"/>
<path d="M88.8364 207.752H84.4222L82.3223 191.608L88.8372 191.608L88.8364 207.752Z" fill="#FBBF8B"/>
<path d="M90.6985 211.55L75.8076 211.549V211.37C75.8077 209.907 76.4184 208.503 77.5053 207.468C78.5923 206.434 80.0664 205.852 81.6036 205.852L90.6988 205.852L90.6985 211.55Z" fill="#2F2E41"/>
<path d="M94.5687 78.6008L91.6294 96.2968L119.55 96.6439L115.876 79.6419L94.5687 78.6008Z" fill="#E2AC54"/>
<path d="M92.2998 91.8958L83.4225 113.679L82.3223 203.953H89.8405L107.811 131.423L124.314 202.06H131.649L126.515 122.635C126.515 122.635 128.029 106.694 120.28 97.2874L118.394 92.2657L92.2998 91.8958Z" fill="#FFE2AC"/>
<path d="M130.233 108.8C129.46 108.605 128.741 108.254 128.13 107.773C127.518 107.292 127.027 106.693 126.692 106.017C126.357 105.341 126.185 104.605 126.19 103.861C126.195 103.117 126.375 102.383 126.719 101.711L114.896 65.9553L123.592 64.3562L134.404 99.4041C135.584 100.014 136.481 101.005 136.925 102.187C137.37 103.37 137.332 104.663 136.818 105.821C136.304 106.979 135.349 107.922 134.136 108.471C132.922 109.02 131.534 109.137 130.233 108.8Z" fill="#FBBF8B" fill-opacity="0.98"/>
<path d="M114.398 88.0965L95.4498 87.7547C94.9082 87.744 94.3854 87.5676 93.9613 87.2526C93.5372 86.9377 93.2353 86.5015 93.1018 86.0109C92.0861 82.2527 89.8513 72.4583 91.0367 62.703C91.2706 60.8132 91.9078 58.9864 92.9105 57.3308C93.9132 55.6752 95.261 54.2243 96.8743 53.064C98.4876 51.9037 100.334 51.0575 102.303 50.5756C104.272 50.0937 106.325 49.9858 108.34 50.2583C110.465 50.5426 112.502 51.2437 114.317 52.3155C116.132 53.3872 117.684 54.8055 118.872 56.4773C120.059 58.1491 120.854 60.0365 121.206 62.0158C121.558 63.9951 121.458 66.0215 120.912 67.9621C118.527 76.4262 117.18 82.4816 116.908 85.9603C116.868 86.4633 116.653 86.9402 116.295 87.3181C115.938 87.6959 115.457 87.954 114.928 88.053C114.771 88.0822 114.611 88.097 114.45 88.0971C114.433 88.0971 114.415 88.0969 114.398 88.0965Z" fill="#E2AC54"/>
<path d="M61.7279 56.8353C61.8416 57.0753 61.935 57.3235 62.0072 57.5773L85.6976 65.1559L90.2753 61.3911L97.2136 67.1522L89.7977 74.5584C89.1986 75.1568 88.4095 75.556 87.5489 75.6962C86.6882 75.8364 85.8025 75.71 85.0247 75.3359L59.6745 63.1457C58.7578 63.6751 57.6916 63.9292 56.6177 63.8742C55.5438 63.8192 54.5132 63.4578 53.6629 62.8379C52.8125 62.218 52.1828 61.3691 51.8575 60.4041C51.5322 59.439 51.5266 58.4036 51.8416 57.4356C52.1566 56.4675 52.7772 55.6127 53.6209 54.9848C54.4645 54.3569 55.4913 53.9857 56.5645 53.9205C57.6377 53.8553 58.7066 54.0993 59.629 54.62C60.5513 55.1407 61.2834 55.9134 61.7279 56.8353Z" fill="#FBBF8B"/>
<path d="M86.0455 63.6096C86.0473 63.3011 86.1193 62.9966 86.2566 62.7169C86.3939 62.4371 86.5933 62.1888 86.841 61.9888L95.4937 55.0013C96.5889 53.8123 98.1366 53.0835 99.7977 52.9747C101.459 52.8658 103.098 53.3858 104.355 54.4208C105.612 55.4557 106.385 56.921 106.505 58.4954C106.624 60.0698 106.08 61.6249 104.992 62.8197L98.8301 71.9161C98.6542 72.1757 98.4214 72.3963 98.1475 72.5629C97.8736 72.7295 97.565 72.8382 97.2428 72.8815C96.9206 72.9249 96.5923 72.9019 96.2803 72.8141C95.9683 72.7264 95.68 72.5759 95.4348 72.3729L86.8203 65.2398C86.5751 65.0369 86.3789 64.7862 86.2451 64.5049C86.1114 64.2236 86.0433 63.9182 86.0455 63.6096Z" fill="#E2AC54"/>
<path d="M113.344 76.9699C113.048 76.8288 112.789 76.6316 112.585 76.3916C112.38 76.1517 112.236 75.8746 112.161 75.5794L109.531 65.2688C108.905 63.826 108.936 62.2171 109.617 60.7949C110.299 59.3728 111.575 58.2534 113.166 57.6823C114.757 57.1112 116.533 57.135 118.105 57.7484C119.676 58.3619 120.916 59.5149 121.55 60.9547L127.388 70.1604C127.554 70.4232 127.656 70.7153 127.687 71.017C127.718 71.3187 127.676 71.6229 127.566 71.9088C127.455 72.1947 127.277 72.4556 127.045 72.6737C126.813 72.8919 126.532 73.0621 126.221 73.1729L115.279 77.0667C114.968 77.1776 114.634 77.2264 114.3 77.2097C113.966 77.193 113.64 77.1112 113.344 76.9699Z" fill="#E2AC54"/>
<path d="M114.006 46.553C119.675 43.6654 121.759 37.0424 118.66 31.76C115.56 26.4776 108.451 24.5363 102.782 27.4239C97.1119 30.3115 95.0282 36.9346 98.1276 42.2169C101.227 47.4993 108.336 49.4406 114.006 46.553Z" fill="#FBBF8B"/>
<path d="M115.155 39.598C115.155 39.598 110.144 32.8226 105.128 33.5704C100.113 34.3182 97.498 34.9934 97.498 34.9934C97.498 34.9934 95.4555 29.5913 102.313 26.9996C102.313 26.9996 92.6086 20.2849 102.951 15.9757C113.294 11.6664 119.73 15.8428 119.73 15.8428C119.73 15.8428 128.29 21.8424 118.799 27.3948C118.799 27.3948 127.014 35.1278 118.717 42.5145C118.717 42.5145 120.182 36.8899 118.189 38.043C116.197 39.1961 115.155 39.598 115.155 39.598Z" fill="#2F2E41"/>
<ellipse cx="37.7503" cy="94.9022" rx="4.12821" ry="3.83208" fill="white"/>
<defs>
<clipPath id="clip0_1377_8472">
<rect width="28.8462" height="25.2375" fill="white" transform="translate(22.6221 24.3921)"/>
</clipPath>
</defs>
</svg>
