<svg width="30" height="30" viewBox="0 0 30 30" fill="#000000" xmlns="http://www.w3.org/2000/svg">
<path fill-rule="evenodd" clip-rule="evenodd" d="M20.1715 17.6158L30 27.4443L27.4443 30L17.6158 20.1715C15.7804 21.4923 13.5678 22.2985 11.1492 22.2985C4.99142 22.2985 0 17.307 0 11.1492C0 4.99142 4.99142 0 11.1492 0C17.307 0 22.2985 4.99142 22.2985 11.1492C22.2985 13.5678 21.4923 15.7804 20.1715 17.6158ZM11.1492 3.43053C6.87822 3.43053 3.43053 6.87822 3.43053 11.1492C3.43053 15.4202 6.87822 18.8679 11.1492 18.8679C15.4202 18.8679 18.8679 15.4202 18.8679 11.1492C18.8679 6.87822 15.4202 3.43053 11.1492 3.43053Z" fill="#000"/>
</svg>
