<svg width="32" height="30" viewBox="0 0 32 30" fill="#000000" xmlns="http://www.w3.org/2000/svg">
<path d="M29 5.33333H22.9572V4.125C22.9561 3.16393 22.5738 2.24253 21.8942 1.56295C21.2146 0.883371 20.2932 0.501099 19.3322 0.5H12.0822C11.1211 0.501099 10.1997 0.883371 9.52011 1.56295C8.84052 2.24253 8.45825 3.16393 8.45715 4.125V5.33333H2.41667C1.77595 5.33407 1.16169 5.58891 0.708634 6.04197C0.25558 6.49502 0.000732761 7.10928 0 7.75V27.0833C0.000732761 27.724 0.25558 28.3383 0.708634 28.7914C1.16169 29.2444 1.77595 29.4993 2.41667 29.5H29C29.6407 29.4993 30.255 29.2444 30.708 28.7914C31.1611 28.3383 31.4159 27.724 31.4167 27.0833V7.75C31.4159 7.10928 31.1611 6.49502 30.708 6.04197C30.255 5.58891 29.6407 5.33407 29 5.33333ZM10.8738 4.125C10.8742 3.80464 11.0016 3.49751 11.2281 3.27098C11.4547 3.04446 11.7618 2.91703 12.0822 2.91667H19.3322C19.6525 2.91703 19.9596 3.04446 20.1862 3.27098C20.4127 3.49751 20.5401 3.80464 20.5405 4.125V5.33333H10.8738V4.125ZM29 7.75L29.0005 14.0342C24.9216 16.2547 20.3513 17.4176 15.7072 17.4167C11.0641 17.4176 6.49486 16.2552 2.41667 14.0357V7.75H29ZM29 27.0833H2.41667V16.7577C6.55471 18.7819 11.1005 19.8339 15.7072 19.8333C20.3149 19.8339 24.8619 18.7814 29.0007 16.7562L29.0015 27.0833L29 27.0833ZM12.6863 13.7917C12.6863 13.4712 12.8136 13.1639 13.0403 12.9373C13.2669 12.7107 13.5742 12.5833 13.8947 12.5833H17.5197C17.8401 12.5833 18.1475 12.7106 18.3741 12.9372C18.6007 13.1639 18.728 13.4712 18.728 13.7917C18.728 14.1121 18.6007 14.4195 18.3741 14.6461C18.1475 14.8727 17.8401 15 17.5197 15H13.8947C13.5742 15 13.2669 14.8727 13.0403 14.6461C12.8136 14.4195 12.6863 14.1121 12.6863 13.7917Z" fill="#000"/>
</svg>
