<svg width="22" height="26" viewBox="0 0 22 26" fill="#000000" xmlns="http://www.w3.org/2000/svg">
<path d="M10.9375 12.67C14.3896 12.67 17.1875 9.87219 17.1875 6.42004C17.1875 2.9679 14.3896 0.170044 10.9375 0.170044C7.48535 0.170044 4.6875 2.9679 4.6875 6.42004C4.6875 9.87219 7.48535 12.67 10.9375 12.67ZM15.3125 14.2325H14.4971C13.4131 14.7306 12.207 15.0138 10.9375 15.0138C9.66797 15.0138 8.4668 14.7306 7.37793 14.2325H6.5625C2.93945 14.2325 0 17.172 0 20.795V22.8263C0 24.1202 1.0498 25.17 2.34375 25.17H19.5312C20.8252 25.17 21.875 24.1202 21.875 22.8263V20.795C21.875 17.172 18.9355 14.2325 15.3125 14.2325Z" fill="#000"/>
</svg>
