<svg width="17" height="20" viewBox="0 0 17 20" fill="none" xmlns="http://www.w3.org/2000/svg">
<path d="M10.763 16.0355L10.7627 15.6871H6.23907L6.23783 16.0355M10.763 16.0355H10.5034L10.2203 15.8853C10.1929 15.9368 10.1634 15.9869 10.132 16.0355H6.86856C6.83707 15.9869 6.80759 15.9368 6.78024 15.8853L6.49708 16.0355H6.23783M10.763 16.0355V15.6871L10.8828 16.2368M10.763 16.0355C10.7864 16.0355 10.8093 16.0416 10.8296 16.0532C10.85 16.0648 10.867 16.0816 10.879 16.1018C10.8911 16.1221 10.8977 16.1452 10.8984 16.1688C10.8991 16.1925 10.8937 16.2159 10.8828 16.2368M6.23783 16.0355C6.21446 16.0354 6.19147 16.0415 6.1711 16.0531C6.15073 16.0647 6.13367 16.0814 6.12157 16.1017C6.10948 16.122 6.10278 16.1451 6.1021 16.1687C6.10143 16.1924 6.10682 16.2159 6.11774 16.2368M6.23783 16.0355V15.6871L6.11774 16.2368M6.11774 16.2368C6.15451 16.3061 6.19411 16.3736 6.23639 16.4391C6.23687 16.4398 6.23735 16.4406 6.23783 16.4413C6.30622 16.5471 6.3816 16.6477 6.46336 16.7426C6.39201 16.7707 6.31554 16.7855 6.23783 16.7855M6.11774 16.2368L6.23516 16.7855H6.23783M6.23783 16.7855H6.50115H6.23783ZM10.7625 16.7855H10.4994H10.763H10.7638C10.7634 16.7855 10.7629 16.7855 10.7625 16.7855ZM10.7625 16.7855C10.6849 16.7854 10.6085 16.7707 10.5371 16.7426M10.7625 16.7855L10.5371 16.7426M10.5371 16.7426C10.619 16.6476 10.6945 16.5468 10.763 16.4408C10.7632 16.4406 10.7633 16.4404 10.7634 16.4402C10.806 16.3743 10.8458 16.3065 10.8828 16.2368M10.5371 16.7426L10.8828 16.2368M15.3076 12.4512L15.307 12.4504C15.2696 12.4047 15.2475 12.3774 15.2247 12.3492C15.2027 12.3221 15.1801 12.2941 15.1423 12.2479C14.7666 11.7872 14.5482 11.5116 14.3912 11.0728C14.2285 10.6181 14.1169 9.93535 14.1169 8.67571C14.1169 7.22394 13.7739 5.95331 13.0278 4.96596C12.5354 4.3134 11.8962 3.81566 11.1095 3.44337C10.6646 2.35638 9.68476 1.5686 8.50008 1.5686C7.31562 1.5686 6.33618 2.35611 5.8913 3.44196C4.95063 3.8885 4.20742 4.5247 3.69426 5.37011C3.1344 6.29245 2.88359 7.40545 2.88359 8.67468C2.88359 9.93499 2.77212 10.6179 2.60951 11.0727C2.4527 11.5112 2.23437 11.7866 1.85845 12.2466C1.85197 12.2545 1.84542 12.2625 1.8388 12.2706C1.7919 12.3279 1.74178 12.3892 1.69087 12.4526C1.45679 12.7399 1.30931 13.0879 1.2645 13.4555C1.21963 13.8234 1.27937 14.1971 1.43726 14.5326C1.7743 15.2525 2.49077 15.6871 3.27774 15.6871H5.49641C5.4899 15.6971 5.48359 15.7072 5.47747 15.7175C5.39951 15.8482 5.35669 15.9963 5.35241 16.1475C5.34812 16.2987 5.38249 16.4489 5.45279 16.5837L5.45277 16.5837L5.45525 16.5884C5.74973 17.1433 6.18759 17.6085 6.72352 17.9335C7.25954 18.2585 7.87322 18.431 8.49937 18.4315H8.5007C9.12693 18.431 9.74069 18.2587 10.2768 17.9336C10.8128 17.6086 11.2507 17.1434 11.5453 16.5884L11.5453 16.5884L11.5477 16.5837C11.618 16.4491 11.6523 16.299 11.6481 16.148C11.6439 15.997 11.6013 15.849 11.5236 15.7184C11.5173 15.7078 11.5108 15.6974 11.5041 15.6871H13.7261C14.5128 15.6871 15.2238 15.2513 15.5608 14.5373C15.7198 14.2014 15.7803 13.827 15.7358 13.4582C15.6912 13.089 15.5431 12.7395 15.3076 12.4512ZM6.7827 15.8899C6.80688 15.9363 6.82486 15.9852 6.83645 16.0355H6.50362L6.7827 15.8899ZM10.4969 16.0355H10.1641C10.1756 15.9852 10.1936 15.9363 10.2178 15.8899L10.4969 16.0355ZM10.7623 15.2855H6.23856H10.7623Z" stroke="#49454F" stroke-width="1.5"/>
</svg>
