<svg width="17" height="18" viewBox="0 0 17 18" fill="none" xmlns="http://www.w3.org/2000/svg">
<path d="M14.2851 9.00005C14.2851 8.82264 14.2774 8.65295 14.2619 8.47554L15.6966 7.38795C16.0052 7.15654 16.09 6.72459 15.8972 6.3852L14.4548 3.89376C14.3623 3.73038 14.2127 3.60693 14.0347 3.54713C13.8568 3.48734 13.663 3.49541 13.4906 3.5698L11.8322 4.27172C11.5468 4.07117 11.246 3.89376 10.9297 3.74721L10.706 1.9654C10.6598 1.57973 10.3281 1.28662 9.94241 1.28662H7.0653C6.67192 1.28662 6.34024 1.57973 6.29396 1.9654L6.07027 3.74721C5.75402 3.89376 5.45319 4.07117 5.1678 4.27172L3.50941 3.5698C3.15459 3.41553 2.73807 3.55437 2.54523 3.89376L1.10282 6.39291C0.909983 6.7323 0.99483 7.15654 1.30337 7.39566L2.73807 8.48325C2.70609 8.82962 2.70609 9.1782 2.73807 9.52457L1.30337 10.6122C0.99483 10.8436 0.909983 11.2755 1.10282 11.6149L2.54523 14.1063C2.73807 14.4457 3.15459 14.5846 3.50941 14.4303L5.1678 13.7284C5.45319 13.9289 5.75402 14.1063 6.07027 14.2529L6.29396 16.0347C6.34024 16.4204 6.67192 16.7135 7.05759 16.7135H9.9347C10.3204 16.7135 10.652 16.4204 10.6983 16.0347L10.922 14.2529C11.2383 14.1063 11.5391 13.9289 11.8245 13.7284L13.4829 14.4303C13.8377 14.5846 14.2542 14.4457 14.4471 14.1063L15.8895 11.6149C16.0823 11.2755 15.9975 10.8513 15.6889 10.6122L14.2542 9.52457C14.2774 9.34716 14.2851 9.17746 14.2851 9.00005ZM8.53085 11.6998C7.04216 11.6998 5.83115 10.4887 5.83115 9.00005C5.83115 7.51136 7.04216 6.30035 8.53085 6.30035C10.0195 6.30035 11.2306 7.51136 11.2306 9.00005C11.2306 10.4887 10.0195 11.6998 8.53085 11.6998Z" stroke="#49454F" stroke-width="1.5"/>
</svg>
