<svg width="25" height="26" viewBox="0 0 25 26" fill="#000000" xmlns="http://www.w3.org/2000/svg">
    <circle cx="12.5" cy="12.9753" r="12.5" fill="#000"/>
    <path d="M11.9112 6.47998C10.5892 6.48154 9.32191 7.00883 8.38717 7.94617C7.45243 8.88351 6.92661 10.1544 6.92505 11.48C6.92347 12.5633 7.27634 13.6171 7.92953 14.48C7.92953 14.48 8.06551 14.6595 8.08772 14.6854L11.9112 19.2072L15.7364 14.6832C15.7564 14.6591 15.8928 14.48 15.8928 14.48L15.8932 14.4786C16.5461 13.6162 16.8988 12.5628 16.8973 11.48C16.8957 10.1544 16.3699 8.88351 15.4351 7.94617C14.5004 7.00883 13.2331 6.48154 11.9112 6.47998ZM11.9112 13.2982C11.5526 13.2982 11.202 13.1915 10.9038 12.9917C10.6057 12.792 10.3733 12.508 10.236 12.1758C10.0988 11.8435 10.0629 11.478 10.1329 11.1253C10.2028 10.7726 10.3755 10.4486 10.6291 10.1943C10.8827 9.94005 11.2057 9.76689 11.5574 9.69673C11.9091 9.62658 12.2737 9.66258 12.605 9.8002C12.9363 9.93781 13.2195 10.1709 13.4187 10.4698C13.618 10.7688 13.7243 11.1204 13.7243 11.48C13.7237 11.962 13.5325 12.4241 13.1926 12.765C12.8527 13.1058 12.3918 13.2976 11.9112 13.2982Z" fill="white"/>
</svg>
