<svg width="25" height="25" viewBox="0 0 25 25" fill="#000000" xmlns="http://www.w3.org/2000/svg">
<circle cx="12.5" cy="12.5" r="12.5" fill="#000"/>
<path d="M15.4013 15.5V16.75C15.4013 17.0815 15.27 17.3995 15.0362 17.6339C14.8024 17.8683 14.4854 18 14.1548 18H9.16865C8.83805 18 8.52099 17.8683 8.28722 17.6339C8.05345 17.3995 7.92212 17.0815 7.92212 16.75V9.25C7.92212 8.91848 8.05345 8.60054 8.28722 8.36612C8.52099 8.1317 8.83805 8 9.16865 8H13.9055C14.5938 8 15.4013 8.55969 15.4013 9.25V10.5M17.3957 15.5L19.8888 13L17.3957 10.5M11.4124 13H19.3902" stroke="white" stroke-linecap="round" stroke-linejoin="round"/>
</svg>
