<svg width="25" height="25" viewBox="0 0 25 25" fill="#000000" xmlns="http://www.w3.org/2000/svg">
<circle cx="12.5" cy="12.5" r="12.5" fill="#000"/>
<path d="M12.1604 12.7857C11.6261 12.7857 11.27 13.1429 11.27 13.6786C11.27 14.0357 11.5371 14.3036 11.8042 14.3929L11.5371 15.6429H12.6946L12.4275 14.3929C12.7836 14.3036 12.9617 14.0357 12.9617 13.6786C13.0507 13.1429 12.6946 12.7857 12.1604 12.7857ZM12.2494 8.94643C11.6261 8.94643 11.0029 9.39286 11.0029 10.0179V11.3571H13.4069V10.0179C13.3179 9.39286 12.8727 8.94643 12.2494 8.94643ZM12.1604 6L5.92773 8.67857V11.3571C6.01677 15.2857 8.50983 18.7679 12.1604 20.1964C15.8109 18.7679 18.304 15.2857 18.393 11.3571V8.67857L12.1604 6ZM15.7219 15.8214C15.7219 16.3571 15.3657 16.7143 14.8315 16.7143H9.48924C8.95502 16.7143 8.59887 16.3571 8.59887 15.8214V12.25C8.59887 11.7143 8.95502 11.3571 9.48924 11.3571H9.75636V10.0179C9.84539 8.76786 10.9138 7.78571 12.1604 7.78571C13.4069 7.78571 14.4754 8.76786 14.5644 10.0179V11.3571H14.8315C15.3657 11.3571 15.7219 11.7143 15.7219 12.25V15.8214Z" fill="white"/>
</svg>
