<svg width="25" height="25" viewBox="0 0 25 25" fill="#000000" xmlns="http://www.w3.org/2000/svg">
<circle cx="12.5" cy="12.5" r="12.5" fill="#000"/>
<path d="M12.2436 15.6667C11.8909 15.6667 11.5527 15.5262 11.3034 15.2761C11.054 15.0261 10.9139 14.687 10.9139 14.3333C10.9139 13.5933 11.5056 13 12.2436 13C12.5962 13 12.9344 13.1405 13.1838 13.3905C13.4331 13.6406 13.5732 13.9797 13.5732 14.3333C13.5732 14.687 13.4331 15.0261 13.1838 15.2761C12.9344 15.5262 12.5962 15.6667 12.2436 15.6667ZM16.2325 17.6667V11H8.25468V17.6667H16.2325ZM16.2325 9.66667C16.5851 9.66667 16.9233 9.80714 17.1726 10.0572C17.422 10.3072 17.5621 10.6464 17.5621 11V17.6667C17.5621 18.0203 17.422 18.3594 17.1726 18.6095C16.9233 18.8595 16.5851 19 16.2325 19H8.25468C7.90204 19 7.56384 18.8595 7.31449 18.6095C7.06513 18.3594 6.92505 18.0203 6.92505 17.6667V11C6.92505 10.26 7.51673 9.66667 8.25468 9.66667H8.91949V8.33333C8.91949 7.44928 9.26971 6.60143 9.89309 5.97631C10.5165 5.35119 11.362 5 12.2436 5C12.6801 5 13.1123 5.08622 13.5156 5.25373C13.9189 5.42125 14.2854 5.66678 14.594 5.97631C14.9027 6.28584 15.1476 6.6533 15.3146 7.05772C15.4817 7.46214 15.5676 7.89559 15.5676 8.33333V9.66667H16.2325ZM12.2436 6.33333C11.7146 6.33333 11.2073 6.54405 10.8333 6.91912C10.4593 7.29419 10.2491 7.8029 10.2491 8.33333V9.66667H14.238V8.33333C14.238 7.8029 14.0279 7.29419 13.6539 6.91912C13.2798 6.54405 12.7725 6.33333 12.2436 6.33333Z" fill="white"/>
</svg>
